# xmcd CD database file
#
# Track frame offsets:
#	150
#	21337
#	46161
#	67160
#	86989
#	106233
#	124391
#	145487
#	175004
#	190379
#	205022
#	224391
#	241064
#	258777
#
# Disc length: 4130 seconds
#
# Revision: 0
# Processed by: cddbd v1.5.2PL0 Copyright (c) Steve Scherf et al.
# Submitted via: CDex 1.70beta2
#
DISCID=cf10200e
DTITLE=Peg Leg Sam - Kickin´It
DYEAR=1900
DGENRE=Blues
TTITLE0=Who´s That Left Here
TTITLE1=While Ago
TTITLE2=Greasy Greens
TTITLE3=Reuben
TTITLE4=Irene, Tell Me, Who
TTITLE5=Do You Love
TTITLE6=Skinny Woman Blues
TTITLE7=Lost Kohn
TTITLE8=Ode To Bad Bill
TTITLE9=Ain´t But One Thing Given
TTITLE10=Befor You Give It All Way
TTITLE11=Fast Freight Train
TTITLE12=Nasty Old Trail
TTITLE13=Born in Hard Luck
EXTD=
EXTT0=
EXTT1=
EXTT2=
EXTT3=
EXTT4=
EXTT5=
EXTT6=
EXTT7=
EXTT8=
EXTT9=
EXTT10=
EXTT11=
EXTT12=
EXTT13=
PLAYORDER=
